<svg xmlns="http://www.w3.org/2000/svg" version="1.1" width="146px" height="114px" style="shape-rendering:geometricPrecision; text-rendering:geometricPrecision; image-rendering:optimizeQuality; fill-rule:evenodd; clip-rule:evenodd" xmlns:xlink="http://www.w3.org/1999/xlink">
<g><path style="opacity:0.954" fill="#aeadad" d="M 99.5,16.5 C 104.046,16.2681 108.379,17.1015 112.5,19C 115.259,21.5738 114.926,23.7405 111.5,25.5C 110.289,24.7261 110.289,23.8928 111.5,23C 109.795,20.5719 107.795,20.0719 105.5,21.5C 101.473,19.6416 97.1398,18.9749 92.5,19.5C 90.1432,19.6633 87.8098,19.4966 85.5,19C 88.0356,18.8138 90.369,18.3138 92.5,17.5C 95.0593,17.8016 97.3926,17.4682 99.5,16.5 Z"/></g>
<g><path style="opacity:1" fill="#9493a0" d="M 92.5,17.5 C 90.369,18.3138 88.0356,18.8138 85.5,19C 87.8098,19.4966 90.1432,19.6633 92.5,19.5C 81.3857,20.8596 70.3857,23.0263 59.5,26C 69.8615,20.826 80.8615,17.9927 92.5,17.5 Z"/></g>
<g><path style="opacity:0.694" fill="#8d90b5" d="M 107.5,23.5 C 108.906,23.9731 109.573,24.9731 109.5,26.5C 108.094,26.0269 107.427,25.0269 107.5,23.5 Z"/></g>
<g><path style="opacity:1" fill="#7a7d96" d="M 37.5,33.5 C 38.8333,35.1667 38.8333,36.8333 37.5,38.5C 37.6716,37.5084 37.3382,36.8417 36.5,36.5C 33.0381,35.5184 29.3714,35.185 25.5,35.5C 29.5,34.8333 33.5,34.1667 37.5,33.5 Z"/></g>
<g><path style="opacity:1" fill="#363c7c" d="M 25.5,35.5 C 29.3714,35.185 33.0381,35.5184 36.5,36.5C 30.2195,38.9752 24.5528,42.4752 19.5,47C 18.5632,47.6917 17.8966,47.525 17.5,46.5C 17.8726,43.4261 18.5392,40.4261 19.5,37.5C 20.1667,37.5 20.5,37.1667 20.5,36.5C 22.0418,35.6993 23.7085,35.366 25.5,35.5 Z"/></g>
<g><path style="opacity:1" fill="#afaeae" d="M 23.5,31.5 C 27.7147,33.4364 32.3814,34.1031 37.5,33.5C 33.5,34.1667 29.5,34.8333 25.5,35.5C 23.7085,35.366 22.0418,35.6993 20.5,36.5C 19.8333,36.5 19.5,36.8333 19.5,37.5C 12.4482,38.5517 8.44817,42.5517 7.5,49.5C 3.77468,49.2204 2.60802,47.2204 4,43.5C 9.28207,37.3686 15.7821,33.3686 23.5,31.5 Z"/></g>
<g><path style="opacity:1" fill="#31387a" d="M 99.5,16.5 C 97.3926,17.4682 95.0593,17.8016 92.5,17.5C 80.8615,17.9927 69.8615,20.826 59.5,26C 70.3857,23.0263 81.3857,20.8596 92.5,19.5C 97.1398,18.9749 101.473,19.6416 105.5,21.5C 106.5,21.8333 107.167,22.5 107.5,23.5C 107.427,25.0269 108.094,26.0269 109.5,26.5C 111.796,28.4006 113.629,30.7339 115,33.5C 116.009,35.0249 116.509,36.6916 116.5,38.5C 115.761,38.369 115.094,38.5357 114.5,39C 115.984,39.6622 117.317,40.4955 118.5,41.5C 119.93,46.7429 120.93,52.0762 121.5,57.5C 114.846,56.1706 108.18,54.8372 101.5,53.5C 100.833,53.8333 100.167,54.1667 99.5,54.5C 104.18,55.6029 108.847,56.7695 113.5,58C 116.281,58.5218 118.615,59.6885 120.5,61.5C 119.518,65.3164 118.851,69.3164 118.5,73.5C 112.578,92.5873 99.911,104.754 80.5,110C 60.7555,114.074 44.0888,108.908 30.5,94.5C 30.1667,93.5 29.5,92.8333 28.5,92.5C 25.7232,90.0495 23.7232,87.0495 22.5,83.5C 22.3505,82.448 22.5172,81.448 23,80.5C 33.5054,71.8302 45.3387,65.6636 58.5,62C 44.9827,63.8422 32.9827,69.1755 22.5,78C 21.4232,78.4696 20.4232,78.3029 19.5,77.5C 18.6618,77.1583 18.3284,76.4916 18.5,75.5C 18.8588,73.629 19.8588,72.129 21.5,71C 23.8333,69.3333 26.1667,67.6667 28.5,66C 24.7891,67.4943 21.1224,69.3276 17.5,71.5C 16.0337,66.3081 15.367,60.9748 15.5,55.5C 16.2279,53.2654 17.5612,51.4321 19.5,50C 25.3951,45.8927 31.3951,42.0593 37.5,38.5C 38.8333,36.8333 38.8333,35.1667 37.5,33.5C 32.3814,34.1031 27.7147,33.4364 23.5,31.5C 36.7419,11.458 55.4086,3.29137 79.5,7C 87.0578,8.56034 93.7245,11.727 99.5,16.5 Z"/></g>
<g><path style="opacity:1" fill="#f0f1f5" d="M 95.5,28.5 C 97.8333,28.5 100.167,28.5 102.5,28.5C 100.026,38.73 98.0265,49.0633 96.5,59.5C 93.1964,61.3553 91.1964,60.522 90.5,57C 93.1886,47.4215 94.8553,37.9215 95.5,28.5 Z"/></g>
<g><path style="opacity:1" fill="#9f9fa4" d="M 63.5,26.5 C 64.552,26.3505 65.552,26.5172 66.5,27C 65.3279,27.4186 64.3279,28.0853 63.5,29C 62.0563,29.7805 60.723,29.6139 59.5,28.5C 60.9492,27.8281 62.2825,27.1614 63.5,26.5 Z"/></g>
<g><path style="opacity:1" fill="#ededf3" d="M 42.5,27.5 C 47.2675,27.1908 51.9342,27.6908 56.5,29C 59.8248,31.635 60.3248,34.8017 58,38.5C 56.6487,40.019 55.1487,41.3523 53.5,42.5C 60.4611,48.6182 59.7944,54.1182 51.5,59C 46.9053,60.3929 42.2387,60.7262 37.5,60C 36.0564,58.874 35.3898,57.374 35.5,55.5C 37.0881,48.3141 38.7548,41.1475 40.5,34C 39.9777,33.0497 39.311,32.2164 38.5,31.5C 39.5487,29.7844 40.882,28.4511 42.5,27.5 Z"/></g>
<g><path style="opacity:1" fill="#2f3679" d="M 43.5,45.5 C 52.8648,44.8489 54.8648,48.3489 49.5,56C 47.1902,56.4966 44.8568,56.6633 42.5,56.5C 42.3227,52.7657 42.6561,49.0991 43.5,45.5 Z"/></g>
<g><path style="opacity:1" fill="#323879" d="M 46.5,31.5 C 53.6972,30.8925 55.3639,33.7259 51.5,40C 49.6547,41.128 47.6547,41.628 45.5,41.5C 45.6159,38.1401 45.9492,34.8067 46.5,31.5 Z"/></g>
<g><path style="opacity:1" fill="#f1f2f6" d="M 79.5,47.5 C 80.0431,47.44 80.3764,47.1067 80.5,46.5C 77.0202,45.1944 73.6868,45.1944 70.5,46.5C 69.2168,51.516 67.5501,56.516 65.5,61.5C 63.9291,62.3094 62.2624,62.6427 60.5,62.5C 63.6545,51.3607 65.9878,40.0274 67.5,28.5C 69.0709,27.6906 70.7376,27.3573 72.5,27.5C 72.5628,32.2029 72.2295,36.8696 71.5,41.5C 74.8333,41.5 78.1667,41.5 81.5,41.5C 82.3455,36.1067 83.5122,30.7734 85,25.5C 87.2003,24.0099 89.0336,24.3432 90.5,26.5C 88.5671,34.4681 86.7337,42.4681 85,50.5C 84.2716,53.2305 84.4383,55.8971 85.5,58.5C 83.4902,60.1713 81.1569,60.838 78.5,60.5C 78.4672,56.1311 78.8005,51.7978 79.5,47.5 Z"/></g>
<g><path style="opacity:1" fill="#5d6397" d="M 70.5,46.5 C 73.6868,45.1944 77.0202,45.1944 80.5,46.5C 80.3764,47.1067 80.0431,47.44 79.5,47.5C 76.7131,46.5233 73.7131,46.19 70.5,46.5 Z"/></g>
<g><path style="opacity:1" fill="#747793" d="M 91.5,24.5 C 94.4397,23.1701 97.4397,23.3367 100.5,25C 97.408,25.7358 94.408,25.5691 91.5,24.5 Z"/></g>
<g><path style="opacity:1" fill="#9a9aa3" d="M 78.5,23.5 C 80.5273,23.3379 82.5273,23.5045 84.5,24C 83.8333,24.6667 83.1667,25.3333 82.5,26C 78.8333,26.6667 75.1667,26.6667 71.5,26C 74.0037,25.3024 76.337,24.4691 78.5,23.5 Z"/></g>
<g><path style="opacity:1" fill="#9f9fa4" d="M 68.5,58.5 C 71.1873,58.3359 73.854,58.5026 76.5,59C 74.1093,59.2868 71.7759,59.7868 69.5,60.5C 68.7025,60.0431 68.3691,59.3764 68.5,58.5 Z"/></g>
<g><path style="opacity:1" fill="#767894" d="M 100.5,59.5 C 102.035,58.2121 103.701,58.2121 105.5,59.5C 103.905,60.4339 102.239,60.4339 100.5,59.5 Z"/></g>
<g><path style="opacity:1" fill="#a7a6aa" d="M 22.5,83.5 C 18.1066,88.2645 18.94,91.9312 25,94.5C 26.3024,93.9152 27.469,93.2485 28.5,92.5C 29.5,92.8333 30.1667,93.5 30.5,94.5C 20.0832,98.7856 15.2499,95.4522 16,84.5C 17.8793,82.4732 19.046,80.1398 19.5,77.5C 20.4232,78.3029 21.4232,78.4696 22.5,78C 32.9827,69.1755 44.9827,63.8422 58.5,62C 45.3387,65.6636 33.5054,71.8302 23,80.5C 22.5172,81.448 22.3505,82.448 22.5,83.5 Z"/></g>
<g><path style="opacity:0.957" fill="#aeadae" d="M 36.5,36.5 C 37.3382,36.8417 37.6716,37.5084 37.5,38.5C 31.3951,42.0593 25.3951,45.8927 19.5,50C 17.5612,51.4321 16.2279,53.2654 15.5,55.5C 8.36894,61.5613 5.36894,69.228 6.5,78.5C 7.72296,79.6139 9.05629,79.7805 10.5,79C 13.0386,76.6303 15.3719,74.1303 17.5,71.5C 21.1224,69.3276 24.7891,67.4943 28.5,66C 26.1667,67.6667 23.8333,69.3333 21.5,71C 19.8588,72.129 18.8588,73.629 18.5,75.5C 13.7375,79.3446 10.7375,84.3446 9.5,90.5C 11.6069,92.487 11.7736,94.487 10,96.5C 9,95.8333 8,95.1667 7,94.5C 6.21649,91.2397 6.38316,88.0731 7.5,85C 2.14217,83.2888 -0.191163,79.6222 0.5,74C 0.356984,69.7815 1.52365,65.9482 4,62.5C 7.98896,56.6825 12.489,51.3492 17.5,46.5C 17.8966,47.525 18.5632,47.6917 19.5,47C 24.5528,42.4752 30.2195,38.9752 36.5,36.5 Z"/></g>
<g><path style="opacity:1" fill="#e4e5ee" d="M 51.5,66.5 C 52.8333,66.5 54.1667,66.5 55.5,66.5C 55.5,69.8333 53.8333,71.5 50.5,71.5C 50.366,69.7085 50.6993,68.0418 51.5,66.5 Z"/></g>
<g><path style="opacity:1" fill="#dedfea" d="M 75.5,66.5 C 81.146,66.1507 81.8127,67.6507 77.5,71C 76.552,71.4828 75.552,71.6495 74.5,71.5C 74.366,69.7085 74.6993,68.0418 75.5,66.5 Z"/></g>
<g><path style="opacity:0.932" fill="#adacae" d="M 116.5,38.5 C 128.153,40.4879 137.82,45.8212 145.5,54.5C 145.5,57.1667 145.5,59.8333 145.5,62.5C 140.95,67.4512 135.95,71.9512 130.5,76C 128.61,77.1123 126.61,77.9456 124.5,78.5C 123.068,78.2668 122.568,77.6001 123,76.5C 132.806,72.9216 132.639,70.9216 122.5,70.5C 125.167,69.8333 127.833,69.1667 130.5,68.5C 128.644,65.8103 126.311,63.6437 123.5,62C 122.212,61.7613 121.212,62.2613 120.5,63.5C 120.5,62.8333 120.5,62.1667 120.5,61.5C 118.615,59.6885 116.281,58.5218 113.5,58C 108.847,56.7695 104.18,55.6029 99.5,54.5C 100.167,54.1667 100.833,53.8333 101.5,53.5C 108.18,54.8372 114.846,56.1706 121.5,57.5C 127.404,59.2403 131.571,62.907 134,68.5C 142.521,64.2929 144.021,58.4596 138.5,51C 132.206,47.0194 125.539,43.8527 118.5,41.5C 117.317,40.4955 115.984,39.6622 114.5,39C 115.094,38.5357 115.761,38.369 116.5,38.5 Z"/></g>
<g><path style="opacity:0.58" fill="#666a9c" d="M 120.5,61.5 C 120.5,62.1667 120.5,62.8333 120.5,63.5C 120.841,67.1595 120.175,70.4928 118.5,73.5C 118.851,69.3164 119.518,65.3164 120.5,61.5 Z"/></g>
<g><path style="opacity:1" fill="#eeeff4" d="M 35.5,72.5 C 36.8221,72.33 37.9887,72.6634 39,73.5C 39.3333,76.8333 39.6667,80.1667 40,83.5C 42.6161,80.2706 44.1161,76.6039 44.5,72.5C 45.5,72.5 46.5,72.5 47.5,72.5C 46.9798,79.8964 43.3131,84.8964 36.5,87.5C 36.4971,82.4725 36.1637,77.4725 35.5,72.5 Z"/></g>
<g><path style="opacity:1" fill="#e9eaf1" d="M 73.5,73.5 C 74.8333,73.5 76.1667,73.5 77.5,73.5C 77.5145,80.6475 75.1812,86.8142 70.5,92C 68.8659,92.4935 67.1992,92.6602 65.5,92.5C 65.4257,88.8389 66.4257,88.1723 68.5,90.5C 71.7534,85.3412 73.42,79.6745 73.5,73.5 Z"/></g>
<g><path style="opacity:1" fill="#e8e9f0" d="M 61.5,72.5 C 64.2716,73.3715 66.9382,73.3715 69.5,72.5C 69.1497,75.7215 68.4831,78.8882 67.5,82C 67.6801,84.2414 68.5135,84.7414 70,83.5C 70.0334,85.8771 68.7001,87.2105 66,87.5C 64.3468,87.1802 63.3468,86.1802 63,84.5C 60.142,88.4054 57.4753,88.4054 55,84.5C 53.4912,86.9193 51.3245,87.9193 48.5,87.5C 48.6686,82.8189 49.0019,78.1522 49.5,73.5C 50.8333,73.5 52.1667,73.5 53.5,73.5C 52.6239,76.7989 52.4572,80.1322 53,83.5C 55.3439,79.491 58.1772,75.8243 61.5,72.5 Z"/></g>
<g><path style="opacity:1" fill="#ebecf2" d="M 84.5,72.5 C 91.1546,72.5971 92.1546,75.0971 87.5,80C 86.1279,80.4017 84.7946,80.9017 83.5,81.5C 82.0517,83.8077 82.7183,85.141 85.5,85.5C 87.4366,84.7396 89.2699,83.7396 91,82.5C 92.1861,84.6766 94.0194,85.6766 96.5,85.5C 96.3921,83.2166 95.5588,81.2166 94,79.5C 93.214,73.6272 95.714,71.6272 101.5,73.5C 100.311,74.4287 98.9778,74.762 97.5,74.5C 98.0229,77.0277 99.0229,79.361 100.5,81.5C 98.569,87.5544 94.9023,88.8877 89.5,85.5C 80.2408,89.734 77.0741,87.0674 80,77.5C 81.7073,75.9625 83.2073,74.2959 84.5,72.5 Z"/></g>
<g><path style="opacity:1" fill="#3e4181" d="M 85.5,74.5 C 86.4972,74.4701 87.1639,74.9701 87.5,76C 86.9238,77.7144 85.7571,78.8811 84,79.5C 83.3872,77.5048 83.8872,75.8381 85.5,74.5 Z"/></g>
<g><path style="opacity:1" fill="#32377a" d="M 61.5,75.5 C 62.9778,75.238 64.3112,75.5713 65.5,76.5C 60.1715,87.4387 58.8382,87.1054 61.5,75.5 Z"/></g>
</svg>
